<svg width="201" height="80" viewBox="0 0 201 80" fill="none" xmlns="http://www.w3.org/2000/svg">
<g clip-path="url(#clip0_1381_143)">
<path d="M94.9754 66.6871C94.0411 65.9537 93.3683 64.9385 93.0572 63.7922C92.7317 62.6747 91.2183 62.1996 89.1769 64.1618C84.8029 68.3434 79.2551 71.0882 73.2772 72.028C65.1822 73.1103 59.894 70.4794 54.1659 68.6844C48.4378 66.8894 48.5874 69.6963 48.7546 70.629C48.7604 70.6466 48.7716 70.6619 48.7866 70.6728C48.8016 70.6836 48.8196 70.6895 48.8382 70.6895C48.8567 70.6895 48.8748 70.6836 48.8898 70.6728C48.9048 70.6619 48.916 70.6466 48.9218 70.629C49.8017 68.9836 54.6763 73.2071 62.1994 76.5155C73.3124 81.4165 82.5513 80.035 88.3938 77.3954C92.8549 75.354 97.1927 71.6936 97.4039 69.2211C97.5271 67.4086 96.0049 67.479 94.9754 66.6871Z" fill="#FB2222"/>
<path d="M104.813 58.4777C103.965 58.0674 103.01 57.9316 102.081 58.0893C101.152 58.247 100.295 58.6903 99.6303 59.3576C98.9264 59.9471 98.3369 60.5278 97.8089 61.047C96.4451 62.3668 95.5212 63.2731 94.2277 62.9563H94.1486C94.2207 63.1104 94.2824 63.2691 94.3333 63.4315C94.5701 64.3011 95.0751 65.0739 95.7764 65.64C95.9603 65.7698 96.158 65.879 96.3659 65.9656L96.4803 66.0184C96.7091 66.1239 97.0258 66.2735 97.3074 66.4407H97.3514C97.9673 63.713 99.0672 61.6101 100.572 60.3782C102.745 58.6185 104.619 60.475 104.971 60.871C105.148 60.7197 105.288 60.5292 105.378 60.3145C105.469 60.0999 105.508 59.867 105.493 59.6346C105.477 59.4021 105.408 59.1765 105.29 58.9756C105.172 58.7748 105.008 58.6043 104.813 58.4777Z" fill="#088D00"/>
<path d="M162.349 33.3394C162.349 29.9254 160.105 27.6816 157.069 27.6816C151.834 27.6816 146.009 36.8237 142.27 43.4757C143.845 37.3165 146.256 34.0873 146.256 31.8435C146.256 28.6847 145.094 27.6816 142.85 27.6816C139.78 27.6816 136.533 29.679 135.618 35.1607C135.194 37.7477 134.627 40.3091 133.919 42.8334C129.291 48.016 123.765 52.7938 117.905 52.7938C112.916 52.7938 111.588 49.9693 111.253 46.4762H111.588C124.786 46.4762 130.461 39.833 130.461 34.4216C130.461 30.7701 126.942 27.6904 122.314 27.6904C113.779 27.6904 107.021 34.4216 104.276 42.0679C102.939 41.6399 101.645 41.086 100.413 40.4137C101.326 38.2228 101.841 35.8869 101.935 33.5153C101.935 28.9399 99.4804 27.0393 96.4447 27.0393C95.5045 26.9911 94.5644 27.1363 93.6826 27.466C92.8007 27.7957 91.9959 28.3028 91.3179 28.956C90.64 29.6093 90.1033 30.3947 89.741 31.2636C89.3788 32.1326 89.1987 33.0667 89.212 34.0081C89.212 37.6684 91.6405 40.2553 95.0897 42.3759C92.3444 47.532 88.2177 50.9724 85.0589 50.9724C82.7272 50.9724 82.1465 47.7256 82.1465 44.9803C82.156 43.6451 82.2677 42.3126 82.4808 40.9944C82.4808 40.9944 87.0563 34.5096 87.0563 30.6029C87.0563 28.9399 86.1764 27.6904 83.8095 27.6904C79.146 27.6904 76.0136 34.8 74.773 42.2967C70.0831 47.6728 64.3726 52.7938 58.3014 52.7938C53.3124 52.7938 51.9837 49.9693 51.6494 46.4762H51.9837C65.1821 46.4762 70.8486 39.833 70.8486 34.4216C70.8486 30.7701 67.3291 27.6904 62.7008 27.6904C51.4822 27.6904 43.3432 39.3314 43.3432 49.3886C43.3344 56.111 47.7426 59.833 53.6731 59.833C61.2666 59.833 67.6634 55.2575 74.2186 47.664C74.2186 48.236 74.2186 48.7991 74.2186 49.3534C74.2186 56.0846 76.8583 59.833 80.9498 59.833C87.1091 59.833 95.5033 52.9082 99.0756 43.9949C100.475 44.5769 101.912 45.062 103.378 45.4467C103.132 46.7285 103.005 48.0305 103 49.3358C102.947 56.111 107.347 59.833 113.242 59.833C120.281 59.833 126.256 55.9174 132.309 49.3358C131.429 52.697 131.095 53.2865 131.095 55.8382C131.095 58.9179 132.591 59.833 134.755 59.833C139.903 59.833 142.234 51.7643 143.651 48.0248C145.64 42.7454 149.714 35.9702 151.878 35.9702C152.626 35.9702 153.04 36.8501 153.04 38.1348C153.04 38.9619 152.793 39.4634 152.793 39.9562C152.793 40.836 153.295 41.2056 154.368 41.2056C157.281 41.232 162.349 37.906 162.349 33.3394ZM119.146 33.1722C120.809 33.1722 122.058 34.1665 122.058 36.331C122.058 42.3143 115.574 43.2294 111.746 43.2294H111.245C111.746 36.6654 116.146 33.1722 119.146 33.1722ZM59.542 33.1722C61.205 33.1722 62.4545 34.1665 62.4545 36.331C62.4545 42.3143 55.9696 43.2294 52.1509 43.2294H51.6494C52.1509 36.6654 56.5504 33.1722 59.542 33.1722ZM96.8495 38.5659C95.3625 37.5892 93.4883 35.8646 93.7699 33.8057C94.1042 31.2628 95.5737 30.8405 96.4096 30.8405C97.2455 30.8405 98.1693 31.5092 98.1693 33.4801C98.1869 34.4128 97.5798 37.5892 96.8495 38.5659Z" fill="#141514"/>
<path d="M46.2823 67.2234C36.6035 62.5952 38.0289 52.3796 39.032 46.3171C39.3304 44.0764 39.7861 41.8595 40.3958 39.6827C40.9501 38.9084 41.7244 37.9229 42.6571 36.6735C48.0245 29.6343 58.3456 16.2071 58.3456 6.00038C58.3456 2.25203 56.8498 0.00830288 53.0663 0.00830288C43.5898 -0.000496056 32.9607 27.637 30.0043 43.2639C30.0043 43.3519 30.0043 43.4311 29.9603 43.5103C25.42 48.4993 20.0175 52.9691 14.5005 52.9691C10.5938 52.9691 8.34127 49.8983 8.34127 45.4108C8.34127 40.3338 12.0016 33.3563 15.7412 33.3563C16.9026 33.3563 17.4042 33.6818 17.4042 33.937C17.4042 34.4297 16.4011 35.0193 16.4011 37.7557C16.415 38.9335 16.8951 40.0578 17.7361 40.8823C18.5772 41.7069 19.7107 42.1646 20.8886 42.1552C22.7526 42.0618 24.507 41.2462 25.78 39.8813C27.053 38.5163 27.7444 36.7093 27.7077 34.8433C27.7077 30.6814 24.3025 27.6898 19.7271 27.6898C7.73414 27.681 -0.00012207 39.322 -0.00012207 49.3791C-0.00012207 53.6202 2.3316 59.8323 10.2242 59.8323C17.3162 59.8323 23.2115 55.8376 29.2211 49.124C29.2211 49.256 29.2211 49.3879 29.2211 49.5199C29.2211 49.6519 29.2211 49.8631 29.2211 50.0303C29.0364 64.2845 39.3663 68.9392 45.7544 69.6079C46.0039 69.6333 46.2549 69.5765 46.4693 69.4463C46.6836 69.3161 46.8497 69.1195 46.9422 68.8864C47.0655 68.5774 47.0658 68.2329 46.943 67.9236C46.8203 67.6144 46.5839 67.3638 46.2823 67.2234ZM52.3888 11.9749C52.8023 11.9749 52.9695 12.3092 52.9695 12.8548C52.9695 15.2657 48.9836 22.7448 43.4138 30.7342C43.4138 30.6902 50.1538 11.9749 52.3888 11.9749Z" fill="#141514"/>
<path d="M171.878 25.623C170.338 25.623 169.089 27.3828 169.089 29.5122C169.055 29.7854 169.08 30.0626 169.161 30.3257C169.241 30.5889 169.377 30.8321 169.558 31.0395C169.739 31.247 169.961 31.4141 170.211 31.5299C170.46 31.6458 170.732 31.7078 171.007 31.7119C172.564 31.7119 173.743 29.9521 173.743 27.858C173.743 26.4853 173.022 25.623 171.878 25.623Z" fill="#FB2222"/>
<path d="M193.136 16.1902H161.9C160.617 16.1892 159.375 16.6403 158.392 17.4642C157.409 18.2881 156.747 19.4321 156.524 20.6953L155.494 26.397C155.732 26.3442 155.961 26.3002 156.198 26.265H156.321C156.558 26.2372 156.796 26.2225 157.034 26.221C160.958 26.221 163.801 29.2126 163.801 33.3305C163.801 33.6246 163.783 33.9185 163.748 34.2104V34.3864C163.713 34.6652 163.66 34.9415 163.589 35.2135C163.584 35.2632 163.584 35.3134 163.589 35.3631C163.519 35.6095 163.44 35.847 163.352 36.0846C163.352 36.0846 163.352 36.1638 163.352 36.2078C163.246 36.4542 163.132 36.7005 163.009 36.9469L162.903 37.1405C162.78 37.3693 162.648 37.598 162.498 37.8268L162.393 37.9676C162.27 38.1524 162.146 38.3283 162.006 38.5043L161.847 38.7067C161.689 38.8915 161.53 39.0762 161.363 39.2522L161.143 39.481L160.747 39.8594L160.431 40.1321L160.017 40.4753L159.727 40.6953L159.19 41.0648H190.567C191.848 41.0842 193.095 40.655 194.093 39.8515C195.091 39.0481 195.777 37.921 196.031 36.6653L198.618 22.631C198.764 21.8346 198.732 21.0155 198.522 20.2333C198.313 19.451 197.932 18.7252 197.407 18.1085C196.882 17.4918 196.227 16.9997 195.488 16.6679C194.749 16.3361 193.946 16.1729 193.136 16.1902ZM171.878 34.58C171.126 34.6285 170.377 34.4341 169.744 34.0254C169.11 33.6167 168.624 33.0153 168.358 32.3099H168.288L168.13 33.0578C168.092 33.2857 168.009 33.5037 167.885 33.6985C167.76 33.8933 167.598 34.0609 167.407 34.1911C167.216 34.3213 167.001 34.4114 166.774 34.4559C166.548 34.5005 166.314 34.4986 166.088 34.4503C165.863 34.402 165.649 34.3084 165.46 34.175C165.271 34.0417 165.112 33.8715 164.991 33.6747C164.87 33.4778 164.79 33.2585 164.756 33.03C164.723 32.8014 164.736 32.5684 164.795 32.3451L167.267 20.7041C167.308 20.4708 167.395 20.2481 167.523 20.0492C167.651 19.8504 167.819 19.6795 168.015 19.5468C168.211 19.4141 168.431 19.3222 168.664 19.2768C168.896 19.2314 169.135 19.2334 169.367 19.2825C169.598 19.3317 169.818 19.427 170.011 19.5629C170.205 19.6988 170.37 19.8724 170.495 20.0733C170.62 20.2742 170.703 20.4983 170.74 20.7321C170.777 20.966 170.766 21.2048 170.708 21.4344L170.03 24.6372H170.118C170.492 24.0732 171.005 23.615 171.608 23.3068C172.21 22.9986 172.882 22.8507 173.559 22.8774C175.952 22.8774 177.448 24.5668 177.448 27.3473C177.448 31.3508 175.098 34.58 171.878 34.58ZM189.238 25.4643L184.399 34.5448C182.841 37.4836 180.95 38.5835 177.888 38.5835H177.597C177.445 38.5893 177.293 38.5589 177.154 38.4947C177.015 38.4306 176.894 38.3345 176.799 38.2143C176.705 38.0941 176.64 37.9533 176.611 37.8034C176.581 37.6534 176.588 37.4986 176.629 37.3517L176.744 36.8061C176.823 36.5201 176.991 36.2664 177.223 36.0815C177.456 35.8966 177.741 35.7899 178.037 35.7766C179.119 35.7766 179.797 35.4335 179.929 34.5888C179.929 34.5272 180.017 34.272 180.008 34.228L178.926 24.9803C178.909 24.7492 178.937 24.517 179.009 24.2969C179.082 24.0767 179.197 23.873 179.348 23.6973C179.499 23.5217 179.683 23.3775 179.89 23.273C180.097 23.1686 180.323 23.1059 180.554 23.0886C181.02 23.0536 181.482 23.2054 181.837 23.5107C182.012 23.6618 182.157 23.8461 182.261 24.053C182.365 24.2599 182.428 24.4853 182.445 24.7164L182.683 31.5708H182.753L186.273 23.9861C186.361 23.7753 186.491 23.5848 186.656 23.4263C186.82 23.2679 187.016 23.1448 187.23 23.0647C187.444 22.9847 187.672 22.9493 187.9 22.9608C188.128 22.9724 188.351 23.0305 188.556 23.1317C188.761 23.2329 188.943 23.375 189.091 23.5492C189.238 23.7234 189.349 23.9261 189.415 24.1447C189.482 24.3632 189.503 24.5931 189.477 24.8201C189.451 25.047 189.379 25.2663 189.265 25.4643H189.238Z" fill="#FB2222"/>
</g>
<defs>
<clipPath id="clip0_1381_143">
<rect width="201" height="80" fill="white"/>
</clipPath>
</defs>
</svg>
