<svg width="228" height="31" viewBox="0 0 228 31" fill="none" xmlns="http://www.w3.org/2000/svg">
<path d="M125.016 30.8447H126.101V25.6873H127.969V24.7745H123.148V25.6873H125.016V30.8447Z" fill="black" fill-opacity="0.4"/>
<path d="M130.441 30.8447H131.577L133.171 25.9019H133.495V24.7745H132.595L130.441 30.8447ZM131.526 29.2756H134.875L134.593 28.4385H131.808L131.526 29.2756ZM134.837 30.8447H135.973L133.815 24.7745H133.243V25.9019L134.837 30.8447Z" fill="black" fill-opacity="0.4"/>
<path d="M141.579 30.9961C142.064 30.9961 142.483 30.9176 142.837 30.7606C143.193 30.6035 143.466 30.382 143.657 30.0959C143.85 29.8098 143.947 29.4705 143.947 29.0779V29.0737C143.947 28.6138 143.804 28.2492 143.518 27.98C143.235 27.7079 142.774 27.5046 142.134 27.37L141.482 27.2312C141.104 27.1526 140.83 27.0433 140.662 26.9031C140.496 26.7628 140.414 26.5862 140.414 26.373V26.3688C140.414 26.1949 140.463 26.0463 140.561 25.9229C140.662 25.7995 140.799 25.7042 140.973 25.6368C141.147 25.5667 141.345 25.5317 141.566 25.5317C141.799 25.5317 142.002 25.5667 142.176 25.6368C142.35 25.707 142.489 25.8023 142.593 25.9229C142.699 26.0407 142.765 26.1795 142.79 26.3394L142.799 26.3898H143.834L143.829 26.3352C143.807 26.0098 143.702 25.7182 143.514 25.4602C143.326 25.2022 143.068 24.9988 142.74 24.8502C142.412 24.6988 142.023 24.623 141.575 24.623C141.137 24.623 140.749 24.7002 140.409 24.8544C140.073 25.0059 139.808 25.2176 139.614 25.4896C139.424 25.7616 139.328 26.0785 139.328 26.4403V26.4445C139.328 26.896 139.469 27.2676 139.749 27.5593C140.032 27.8481 140.485 28.0585 141.108 28.1903L141.76 28.3249C142.152 28.409 142.434 28.5212 142.605 28.6614C142.776 28.7988 142.862 28.9769 142.862 29.1957V29.1999C142.862 29.3738 142.809 29.528 142.702 29.6626C142.595 29.7944 142.448 29.8982 142.26 29.9739C142.072 30.0496 141.857 30.0875 141.613 30.0875C141.357 30.0875 141.13 30.0524 140.931 29.9823C140.732 29.9094 140.572 29.8098 140.451 29.6836C140.334 29.5574 140.266 29.4088 140.25 29.2377L140.245 29.1957H139.194L139.198 29.2546C139.223 29.6023 139.335 29.9066 139.534 30.1674C139.734 30.4282 140.006 30.6315 140.351 30.7774C140.698 30.9232 141.108 30.9961 141.579 30.9961Z" fill="black" fill-opacity="0.4"/>
<path d="M149.133 30.8447H150.218V25.6873H152.086V24.7745H147.265V25.6873H149.133V30.8447Z" fill="black" fill-opacity="0.4"/>
<path d="M157.36 30.8447H158.441V28.4511L160.569 24.7745H159.383L157.936 27.3784H157.864L156.417 24.7745H155.231L157.36 28.4511V30.8447Z" fill="black" fill-opacity="0.4"/>
<path d="M168.37 30.8447H169.506L171.1 25.9019H171.424V24.7745H170.524L168.37 30.8447ZM169.455 29.2756H172.804L172.522 28.4385H169.737L169.455 29.2756ZM172.766 30.8447H173.902L171.744 24.7745H171.171V25.9019L172.766 30.8447Z" fill="black" fill-opacity="0.4"/>
<path d="M177.943 28.8381H179.823C180.235 28.8381 180.596 28.754 180.904 28.5857C181.213 28.4146 181.454 28.1777 181.628 27.8748C181.802 27.5691 181.889 27.2143 181.889 26.8105V26.8021C181.889 26.3954 181.802 26.0407 181.628 25.7378C181.454 25.4321 181.213 25.1952 180.904 25.0269C180.596 24.8586 180.235 24.7745 179.823 24.7745H177.943V25.6579H179.558C179.948 25.6579 180.251 25.7574 180.467 25.9566C180.683 26.1557 180.791 26.4389 180.791 26.8063V26.8147C180.791 27.1793 180.683 27.4625 180.467 27.6645C180.251 27.8636 179.948 27.9631 179.558 27.9631H177.943V28.8381ZM177.4 30.8447H178.485V24.7745H177.4V30.8447Z" fill="black" fill-opacity="0.4"/>
<path d="M186.086 28.8381H187.966C188.378 28.8381 188.739 28.754 189.047 28.5857C189.356 28.4146 189.597 28.1777 189.771 27.8748C189.944 27.5691 190.031 27.2143 190.031 26.8105V26.8021C190.031 26.3954 189.944 26.0407 189.771 25.7378C189.597 25.4321 189.356 25.1952 189.047 25.0269C188.739 24.8586 188.378 24.7745 187.966 24.7745H186.086V25.6579H187.701C188.091 25.6579 188.394 25.7574 188.61 25.9566C188.826 26.1557 188.933 26.4389 188.933 26.8063V26.8147C188.933 27.1793 188.826 27.4625 188.61 27.6645C188.394 27.8636 188.091 27.9631 187.701 27.9631H186.086V28.8381ZM185.543 30.8447H186.628V24.7745H185.543V30.8447Z" fill="black" fill-opacity="0.4"/>
<path d="M195.793 30.9961C196.278 30.9961 196.698 30.9176 197.051 30.7606C197.407 30.6035 197.681 30.382 197.871 30.0959C198.065 29.8098 198.162 29.4705 198.162 29.0779V29.0737C198.162 28.6138 198.018 28.2492 197.732 27.98C197.449 27.7079 196.988 27.5046 196.348 27.37L195.696 27.2312C195.318 27.1526 195.044 27.0433 194.876 26.9031C194.711 26.7628 194.628 26.5862 194.628 26.373V26.3688C194.628 26.1949 194.677 26.0463 194.775 25.9229C194.876 25.7995 195.014 25.7042 195.187 25.6368C195.361 25.5667 195.559 25.5317 195.781 25.5317C196.013 25.5317 196.217 25.5667 196.391 25.6368C196.564 25.707 196.703 25.8023 196.807 25.9229C196.914 26.0407 196.979 26.1795 197.005 26.3394L197.013 26.3898H198.048L198.044 26.3352C198.021 26.0098 197.916 25.7182 197.728 25.4602C197.54 25.2022 197.282 24.9988 196.954 24.8502C196.626 24.6988 196.238 24.623 195.789 24.623C195.351 24.623 194.963 24.7002 194.624 24.8544C194.287 25.0059 194.022 25.2176 193.829 25.4896C193.638 25.7616 193.543 26.0785 193.543 26.4403V26.4445C193.543 26.896 193.683 27.2676 193.963 27.5593C194.247 27.8481 194.699 28.0585 195.322 28.1903L195.974 28.3249C196.367 28.409 196.649 28.5212 196.82 28.6614C196.991 28.7988 197.076 28.9769 197.076 29.1957V29.1999C197.076 29.3738 197.023 29.528 196.916 29.6626C196.81 29.7944 196.663 29.8982 196.475 29.9739C196.287 30.0496 196.071 30.0875 195.827 30.0875C195.572 30.0875 195.344 30.0524 195.145 29.9823C194.946 29.9094 194.786 29.8098 194.666 29.6836C194.548 29.5574 194.481 29.4088 194.464 29.2377L194.46 29.1957H193.408L193.412 29.2546C193.437 29.6023 193.55 29.9066 193.749 30.1674C193.948 30.4282 194.22 30.6315 194.565 30.7774C194.913 30.9232 195.322 30.9961 195.793 30.9961Z" fill="black" fill-opacity="0.4"/>
<path d="M220.975 4.29656H222.089V1.38608H223.144V0.502686H219.92V1.38608H220.975V4.29656Z" fill="black"/>
<path d="M223.817 4.29656H224.79V2.03023H225.339L224.358 0.607852L225.61 4.29656H226.207L227.458 0.607852L226.478 2.03023H227.027V4.29656H228V0.502686H226.733L225.936 2.89259H225.886L225.084 0.502686H223.817V4.29656Z" fill="black"/>
<path d="M0 18.3608H5.15363V12.1497H11.6443V8.28444H5.15363V4.90541H12.325V0.821396H0V18.3608Z" fill="black"/>
<path d="M26.2811 18.6768C28.1043 18.6768 29.6763 18.3081 30.9972 17.5707C32.318 16.8333 33.3349 15.788 34.048 14.4348C34.7692 13.0734 35.1298 11.4609 35.1298 9.59716V9.57285C35.1298 7.70912 34.7692 6.10063 34.048 4.7474C33.3349 3.39416 32.3139 2.34885 30.985 1.61146C29.6642 0.874067 28.0962 0.505371 26.2811 0.505371C24.4822 0.505371 22.9223 0.874067 21.6015 1.61146C20.2807 2.34075 19.2597 3.38606 18.5385 4.7474C17.8173 6.10063 17.4567 7.70912 17.4567 9.57285V9.59716C17.4567 11.4609 17.8133 13.0734 18.5263 14.4348C19.2475 15.7961 20.2685 16.8455 21.5893 17.5829C22.9102 18.3122 24.4741 18.6768 26.2811 18.6768ZM26.2811 14.4712C25.5599 14.4712 24.9319 14.2768 24.3971 13.8878C23.8623 13.4908 23.445 12.9276 23.1452 12.1983C22.8534 11.469 22.7076 10.602 22.7076 9.59716V9.57285C22.7076 8.55995 22.8534 7.69291 23.1452 6.97173C23.445 6.24244 23.8623 5.68332 24.3971 5.29436C24.94 4.90541 25.568 4.71093 26.2811 4.71093C27.0104 4.71093 27.6424 4.90946 28.1772 5.30652C28.7202 5.69547 29.1375 6.25459 29.4292 6.98388C29.729 7.70507 29.8789 8.56806 29.8789 9.57285V9.59716C29.8789 10.5939 29.7331 11.4568 29.4413 12.1861C29.1496 12.9154 28.7364 13.4786 28.2016 13.8757C27.6667 14.2727 27.0266 14.4712 26.2811 14.4712Z" fill="black"/>
<path d="M49.2682 18.6768C51.0915 18.6768 52.6635 18.3081 53.9843 17.5707C55.3051 16.8333 56.3221 15.788 57.0352 14.4348C57.7563 13.0734 58.1169 11.4609 58.1169 9.59716V9.57285C58.1169 7.70912 57.7563 6.10063 57.0352 4.7474C56.3221 3.39416 55.3011 2.34885 53.9721 1.61146C52.6513 0.874067 51.0834 0.505371 49.2682 0.505371C47.4693 0.505371 45.9095 0.874067 44.5886 1.61146C43.2678 2.34075 42.2468 3.38606 41.5256 4.7474C40.8045 6.10063 40.4439 7.70912 40.4439 9.57285V9.59716C40.4439 11.4609 40.8004 13.0734 41.5135 14.4348C42.2347 15.7961 43.2557 16.8455 44.5765 17.5829C45.8973 18.3122 47.4612 18.6768 49.2682 18.6768ZM49.2682 14.4712C48.5471 14.4712 47.9191 14.2768 47.3842 13.8878C46.8494 13.4908 46.4321 12.9276 46.1323 12.1983C45.8406 11.469 45.6947 10.602 45.6947 9.59716V9.57285C45.6947 8.55995 45.8406 7.69291 46.1323 6.97173C46.4321 6.24244 46.8494 5.68332 47.3842 5.29436C47.9272 4.90541 48.5552 4.71093 49.2682 4.71093C49.9975 4.71093 50.6296 4.90946 51.1644 5.30652C51.7073 5.69547 52.1246 6.25459 52.4163 6.98388C52.7161 7.70507 52.8661 8.56806 52.8661 9.57285V9.59716C52.8661 10.5939 52.7202 11.4568 52.4285 12.1861C52.1368 12.9154 51.7235 13.4786 51.1887 13.8757C50.6539 14.2727 50.0137 14.4712 49.2682 14.4712Z" fill="black"/>
<path d="M63.8564 18.3608H71.3559C73.1305 18.3608 74.6458 18.0123 75.9018 17.3155C77.1659 16.6105 78.1302 15.5935 78.7947 14.2646C79.4672 12.9357 79.8035 11.3353 79.8035 9.46346V9.43915C79.8035 7.56731 79.4672 5.99124 78.7947 4.71093C78.1302 3.43063 77.1659 2.46229 75.9018 1.80593C74.6458 1.14958 73.1305 0.821396 71.3559 0.821396H63.8564V18.3608ZM69.0101 14.2646V4.91756H70.6266C71.4451 4.91756 72.146 5.09178 72.7294 5.44022C73.321 5.78056 73.7707 6.28701 74.0786 6.95957C74.3946 7.63214 74.5526 8.45866 74.5526 9.43915V9.46346C74.5526 10.5412 74.4027 11.4366 74.1029 12.1497C73.8112 12.8546 73.3736 13.3854 72.7902 13.742C72.2068 14.0904 71.4856 14.2646 70.6266 14.2646H69.0101Z" fill="black"/>
<path d="M88.1441 13.5718H93.395C94.7644 13.5718 95.9475 13.3165 96.9442 12.806C97.949 12.2874 98.7229 11.5541 99.2658 10.606C99.8168 9.65794 100.092 8.53564 100.092 7.23913V7.21482C100.092 5.91831 99.8168 4.79196 99.2658 3.83579C98.7229 2.87961 97.949 2.13817 96.9442 1.61146C95.9475 1.08475 94.7644 0.821396 93.395 0.821396H88.1441V4.69878H92.1674C93.0182 4.69878 93.6827 4.90946 94.1608 5.33083C94.6469 5.74409 94.89 6.37209 94.89 7.21482V7.23913C94.89 8.07376 94.6469 8.70581 94.1608 9.13528C93.6827 9.55665 93.0182 9.76733 92.1674 9.76733H88.1441V13.5718ZM85.5552 18.3608H90.7088V0.821396H85.5552V18.3608Z" fill="black"/>
<path d="M105.649 18.3608H110.803V0.821396H105.649V18.3608Z" fill="black"/>
<path d="M125.233 18.6768C126.846 18.6768 128.264 18.3567 129.487 17.7166C130.711 17.0764 131.667 16.2094 132.356 15.1154C133.053 14.0215 133.401 12.7898 133.401 11.4204V11.2867H128.466L128.454 11.4204C128.398 12.0362 128.227 12.5751 127.944 13.037C127.66 13.4908 127.287 13.8432 126.826 14.0944C126.364 14.3456 125.837 14.4712 125.245 14.4712C124.54 14.4712 123.929 14.2808 123.41 13.9C122.891 13.5191 122.49 12.964 122.207 12.2348C121.931 11.4974 121.793 10.6101 121.793 9.57285V9.5607C121.793 8.53159 121.931 7.65645 122.207 6.93526C122.49 6.21408 122.887 5.66306 123.398 5.28221C123.916 4.90136 124.528 4.71093 125.233 4.71093C125.873 4.71093 126.42 4.84464 126.874 5.11204C127.336 5.37134 127.697 5.73194 127.956 6.19382C128.223 6.6476 128.381 7.1662 128.43 7.74963L128.442 7.89549H133.377V7.7861C133.377 6.40855 133.037 5.17282 132.356 4.07888C131.675 2.97685 130.723 2.10575 129.5 1.4656C128.284 0.825448 126.862 0.505371 125.233 0.505371C123.451 0.505371 121.907 0.861912 120.602 1.57499C119.306 2.27997 118.305 3.30908 117.6 4.66231C116.895 6.00744 116.543 7.64429 116.543 9.57285V9.58501C116.543 11.5136 116.891 13.1545 117.588 14.5077C118.293 15.8609 119.294 16.8941 120.59 17.6072C121.895 18.3203 123.442 18.6768 125.233 18.6768Z" fill="black"/>
<path d="M166.589 18.6768C168.201 18.6768 169.579 18.4378 170.721 17.9597C171.864 17.4735 172.735 16.7888 173.335 15.9055C173.942 15.0142 174.246 13.9648 174.246 12.7574V12.7453C174.246 11.3191 173.792 10.2049 172.885 9.40269C171.977 8.60047 170.584 8.02919 168.704 7.68886L166.941 7.37283C166.066 7.21077 165.43 7.0244 165.033 6.81371C164.636 6.59493 164.437 6.28701 164.437 5.88995V5.87779C164.437 5.61039 164.518 5.37134 164.68 5.16066C164.842 4.94187 165.082 4.77171 165.398 4.65016C165.722 4.52051 166.119 4.45568 166.589 4.45568C167.059 4.45568 167.476 4.52051 167.841 4.65016C168.213 4.77981 168.509 4.96213 168.728 5.19712C168.955 5.42401 169.085 5.69952 169.117 6.02365L169.129 6.1452H173.869L173.857 5.87779C173.809 4.78386 173.501 3.83579 172.934 3.03357C172.366 2.22325 171.548 1.5993 170.478 1.16173C169.409 0.724158 168.092 0.505371 166.528 0.505371C165.142 0.505371 163.907 0.740364 162.821 1.21035C161.735 1.68034 160.88 2.3448 160.256 3.20374C159.64 4.06268 159.332 5.07963 159.332 6.25459V6.26675C159.332 7.62808 159.794 8.74228 160.718 9.60932C161.65 10.4764 162.987 11.0638 164.729 11.3718L166.491 11.6878C167.464 11.8661 168.149 12.0605 168.546 12.2712C168.943 12.4819 169.141 12.7939 169.141 13.2071V13.2193C169.141 13.511 169.04 13.7703 168.837 13.9972C168.635 14.2241 168.347 14.4024 167.974 14.532C167.61 14.6617 167.168 14.7265 166.65 14.7265C166.163 14.7265 165.718 14.6617 165.312 14.532C164.907 14.3943 164.571 14.2079 164.304 13.9729C164.036 13.7379 163.866 13.4624 163.793 13.1464L163.769 13.037H159.028L159.041 13.2679C159.105 14.4186 159.446 15.3991 160.062 16.2094C160.686 17.0116 161.549 17.6234 162.651 18.0448C163.761 18.4661 165.073 18.6768 166.589 18.6768Z" fill="black"/>
<path d="M186.975 18.6768C188.587 18.6768 189.965 18.4378 191.107 17.9597C192.25 17.4735 193.121 16.7888 193.721 15.9055C194.328 15.0142 194.632 13.9648 194.632 12.7574V12.7453C194.632 11.3191 194.178 10.2049 193.271 9.40269C192.363 8.60047 190.97 8.02919 189.09 7.68886L187.327 7.37283C186.452 7.21077 185.816 7.0244 185.419 6.81371C185.022 6.59493 184.823 6.28701 184.823 5.88995V5.87779C184.823 5.61039 184.904 5.37134 185.066 5.16066C185.229 4.94187 185.468 4.77171 185.784 4.65016C186.108 4.52051 186.505 4.45568 186.975 4.45568C187.445 4.45568 187.862 4.52051 188.227 4.65016C188.599 4.77981 188.895 4.96213 189.114 5.19712C189.341 5.42401 189.471 5.69952 189.503 6.02365L189.515 6.1452H194.255L194.243 5.87779C194.195 4.78386 193.887 3.83579 193.32 3.03357C192.752 2.22325 191.934 1.5993 190.864 1.16173C189.795 0.724158 188.478 0.505371 186.914 0.505371C185.528 0.505371 184.293 0.740364 183.207 1.21035C182.121 1.68034 181.266 2.3448 180.642 3.20374C180.026 4.06268 179.718 5.07963 179.718 6.25459V6.26675C179.718 7.62808 180.18 8.74228 181.104 9.60932C182.036 10.4764 183.373 11.0638 185.115 11.3718L186.878 11.6878C187.85 11.8661 188.535 12.0605 188.932 12.2712C189.329 12.4819 189.527 12.7939 189.527 13.2071V13.2193C189.527 13.511 189.426 13.7703 189.223 13.9972C189.021 14.2241 188.733 14.4024 188.36 14.532C187.996 14.6617 187.554 14.7265 187.036 14.7265C186.549 14.7265 186.104 14.6617 185.698 14.532C185.293 14.3943 184.957 14.2079 184.69 13.9729C184.422 13.7379 184.252 13.4624 184.179 13.1464L184.155 13.037H179.414L179.427 13.2679C179.491 14.4186 179.832 15.3991 180.448 16.2094C181.072 17.0116 181.935 17.6234 183.037 18.0448C184.147 18.4661 185.459 18.6768 186.975 18.6768Z" fill="black"/>
<path d="M208.686 18.6768C210.509 18.6768 212.081 18.3081 213.402 17.5707C214.723 16.8333 215.739 15.788 216.453 14.4348C217.174 13.0734 217.534 11.4609 217.534 9.59716V9.57285C217.534 7.70912 217.174 6.10063 216.453 4.7474C215.739 3.39416 214.718 2.34885 213.39 1.61146C212.069 0.874067 210.501 0.505371 208.686 0.505371C206.887 0.505371 205.327 0.874067 204.006 1.61146C202.685 2.34075 201.664 3.38606 200.943 4.7474C200.222 6.10063 199.861 7.70912 199.861 9.57285V9.59716C199.861 11.4609 200.218 13.0734 200.931 14.4348C201.652 15.7961 202.673 16.8455 203.994 17.5829C205.315 18.3122 206.879 18.6768 208.686 18.6768ZM208.686 14.4712C207.964 14.4712 207.336 14.2768 206.802 13.8878C206.267 13.4908 205.85 12.9276 205.55 12.1983C205.258 11.469 205.112 10.602 205.112 9.59716V9.57285C205.112 8.55995 205.258 7.69291 205.55 6.97173C205.85 6.24244 206.267 5.68332 206.802 5.29436C207.345 4.90541 207.973 4.71093 208.686 4.71093C209.415 4.71093 210.047 4.90946 210.582 5.30652C211.125 5.69547 211.542 6.25459 211.834 6.98388C212.134 7.70507 212.283 8.56806 212.283 9.57285V9.59716C212.283 10.5939 212.138 11.4568 211.846 12.1861C211.554 12.9154 211.141 13.4786 210.606 13.8757C210.071 14.2727 209.431 14.4712 208.686 14.4712Z" fill="black"/>
<path d="M145.896 0L154.718 18.3551H148.47C148.402 16.9703 147.258 15.8683 145.857 15.8683C144.455 15.8683 143.311 16.9703 143.244 18.3551H136.995L139.857 12.4538C140.342 12.6946 140.889 12.83 141.468 12.83C143.472 12.83 145.097 11.2053 145.097 9.20115C145.097 7.75406 144.25 6.50481 143.024 5.92214L145.896 0Z" fill="black"/>
</svg>
