<svg width="130" height="50" viewBox="0 0 279 100" fill="none" xmlns="http://www.w3.org/2000/svg">
<path d="M94.5312 47.6563H83.75L90.3125 41.0938C91.25 40.1563 91.25 38.75 90.3125 37.8125C89.375 36.875 87.9687 36.875 87.0312 37.8125L77.1875 47.6563H69.8437L73.75 43.75C74.6875 42.8125 74.6875 41.4063 73.75 40.4688C72.8125 39.5313 71.4062 39.5313 70.4687 40.4688L63.2812 47.6563H55.7812L69.8437 33.5938H83.75C85 33.5938 86.0937 32.5 86.0937 31.25C86.0937 30 85 28.9063 83.75 28.9063H74.5312L83.125 20.3125C84.0625 19.375 84.0625 17.9688 83.125 17.0313C82.1875 16.0938 80.7812 16.0938 79.8437 17.0313L71.25 25.625V16.4063C71.0937 15 70.1562 14.0625 68.75 14.0625C67.3437 14.0625 66.4062 15.1563 66.4062 16.4063V30.3125L52.3437 44.375V36.875L59.5312 29.6875C60.4687 28.75 60.4687 27.3438 59.5312 26.4063C58.5937 25.4688 57.1875 25.4688 56.25 26.4063L52.3437 30.3125V22.9688L62.1875 13.125C63.125 12.1875 63.125 10.7813 62.1875 9.84375C61.25 8.90625 59.8437 8.90625 58.9062 9.84375L52.3437 16.4063V5.46875C52.3437 4.21875 51.25 3.125 50 3.125C48.75 3.125 47.6562 4.21875 47.6562 5.46875V16.25L41.0937 9.6875C40.1562 8.75 38.75 8.75 37.8125 9.6875C36.875 10.625 36.875 12.0313 37.8125 12.9688L47.6562 22.8125V30.1563L43.75 26.25C42.8125 25.3125 41.4062 25.3125 40.4687 26.25C39.5312 27.1875 39.5312 28.5938 40.4687 29.5313L47.6562 36.7188V44.2188L33.5937 30.1563V16.25C33.5937 15 32.5 14.0625 31.25 14.0625C30 14.0625 28.9062 15.1563 28.9062 16.4063V25.625L20.3125 17.0313C19.375 16.0938 17.9687 16.0938 17.0312 17.0313C16.0937 17.9688 16.0937 19.375 17.0312 20.3125L25.625 28.9063H16.4062C15 28.9063 14.0625 29.8438 14.0625 31.25C14.0625 32.6563 15.1562 33.5938 16.4062 33.5938H30.3125L44.375 47.6563H36.875L29.6875 40.4688C28.75 39.5313 27.3437 39.5313 26.4062 40.4688C25.4687 41.4063 25.4687 42.8125 26.4062 43.75L30.3125 47.6563H22.9687L13.125 37.8125C12.1875 36.875 10.7812 36.875 9.84375 37.8125C8.90625 38.75 8.90625 40.1563 9.84375 41.0938L16.4062 47.6563H5.46875C4.21875 47.6563 3.125 48.75 3.125 50C3.125 51.25 4.21875 52.3438 5.46875 52.3438H16.25L9.6875 58.9063C8.75 59.8438 8.75 61.25 9.6875 62.1875C10.1562 62.6563 10.7812 62.8125 11.4062 62.8125C12.0312 62.8125 12.6562 62.6563 13.125 62.1875L22.9687 52.3438H30.3125L26.25 56.25C25.3125 57.1875 25.3125 58.5938 26.25 59.5313C26.7187 60 27.3437 60.1563 27.9687 60.1563C28.5937 60.1563 29.2187 60 29.6875 59.5313L36.875 52.3438H44.375L30.3125 66.4063H16.4062C15 66.4063 14.0625 67.5 14.0625 68.75C14.0625 70 15.1562 71.0938 16.4062 71.0938H25.625L17.0312 79.6875C16.0937 80.625 16.0937 82.0313 17.0312 82.9688C17.5 83.4375 18.125 83.5938 18.75 83.5938C19.375 83.5938 20 83.4375 20.4687 82.9688L29.0625 74.375V83.5938C29.0625 84.8438 30.1562 85.9375 31.4062 85.9375C32.6562 85.9375 33.75 84.8438 33.75 83.5938V69.6875L47.8125 55.625V63.125L40.4687 70.3125C39.5312 71.25 39.5312 72.6563 40.4687 73.5938C40.9375 74.0625 41.5625 74.2188 42.1875 74.2188C42.8125 74.2188 43.4375 74.0625 43.9062 73.5938L47.8125 69.6875V77.0313L37.9687 86.875C37.0312 87.8125 37.0312 89.2188 37.9687 90.1563C38.4375 90.625 39.0625 90.7813 39.6875 90.7813C40.3125 90.7813 40.9375 90.625 41.4062 90.1563L47.9687 83.5938V94.375C47.9687 95.625 49.0625 96.7188 50.3125 96.7188C51.5625 96.7188 52.6562 95.625 52.6562 94.375V83.5938L59.2187 90.1563C59.6875 90.625 60.3125 90.7813 60.9375 90.7813C61.5625 90.7813 62.1875 90.625 62.6562 90.1563C63.5937 89.2188 63.5937 87.8125 62.6562 86.875L52.8125 77.0313V69.6875L56.7187 73.5938C57.1875 74.0625 57.8125 74.2188 58.4375 74.2188C59.0625 74.2188 59.6875 74.0625 60.1562 73.5938C61.0937 72.6563 61.0937 71.25 60.1562 70.3125L52.9687 63.125V55.625L67.0312 69.6875V83.5938C67.0312 84.8438 68.125 85.9375 69.375 85.9375C70.625 85.9375 71.7187 84.8438 71.7187 83.5938V74.375L80.3125 82.9688C80.7812 83.4375 81.4062 83.5938 82.0312 83.5938C82.6562 83.5938 83.2812 83.4375 83.75 82.9688C84.6875 82.0313 84.6875 80.625 83.75 79.6875L75.1562 71.0938H84.375C85.625 71.0938 86.7187 70 86.7187 68.75C86.7187 67.5 85.625 66.4063 84.375 66.4063H70.4687L56.4062 52.3438H63.9062L71.0937 59.5313C71.5625 60 72.1875 60.1563 72.8125 60.1563C73.4375 60.1563 74.0625 60 74.5312 59.5313C75.4687 58.5938 75.4687 57.1875 74.5312 56.25L70.625 52.3438H77.9687L87.8125 62.1875C88.2812 62.6563 88.9062 62.8125 89.5312 62.8125C90.1562 62.8125 90.7812 62.6563 91.25 62.1875C92.1875 61.25 92.1875 59.8438 91.25 58.9063L84.6875 52.3438H95.4687C96.7187 52.3438 97.8125 51.25 97.8125 50C97.8125 48.75 95.7812 47.6563 94.5312 47.6563Z" fill="#0a84c0"/>
<path d="M130.313 79C130.313 80.7604 129.974 82.2526 129.297 83.4766C128.62 84.7005 127.703 85.6302 126.547 86.2656C125.396 86.901 124.104 87.2187 122.672 87.2187C121.234 87.2187 119.94 86.8984 118.789 86.2578C117.638 85.6172 116.724 84.6875 116.047 83.4687C115.375 82.2448 115.039 80.7552 115.039 79C115.039 77.2396 115.375 75.7474 116.047 74.5234C116.724 73.2995 117.638 72.3698 118.789 71.7344C119.94 71.099 121.234 70.7812 122.672 70.7812C124.104 70.7812 125.396 71.099 126.547 71.7344C127.703 72.3698 128.62 73.2995 129.297 74.5234C129.974 75.7474 130.313 77.2396 130.313 79ZM126.359 79C126.359 77.9583 126.211 77.0781 125.914 76.3594C125.622 75.6406 125.201 75.0964 124.648 74.7266C124.102 74.3568 123.443 74.1719 122.672 74.1719C121.906 74.1719 121.247 74.3568 120.695 74.7266C120.143 75.0964 119.719 75.6406 119.422 76.3594C119.13 77.0781 118.984 77.9583 118.984 79C118.984 80.0417 119.13 80.9219 119.422 81.6406C119.719 82.3594 120.143 82.9036 120.695 83.2734C121.247 83.6432 121.906 83.8281 122.672 83.8281C123.443 83.8281 124.102 83.6432 124.648 83.2734C125.201 82.9036 125.622 82.3594 125.914 81.6406C126.211 80.9219 126.359 80.0417 126.359 79ZM142.906 70.625L143.938 73.1484C143.609 73.4036 143.25 73.5964 142.859 73.7266C142.474 73.8568 142.003 73.9453 141.445 73.9922C140.888 74.0391 140.185 74.0651 139.336 74.0703C138.378 74.0755 137.602 74.2083 137.008 74.4687C136.414 74.724 135.964 75.1432 135.656 75.7266C135.354 76.3047 135.154 77.0755 135.055 78.0391H135.156C135.5 77.3151 135.99 76.7448 136.625 76.3281C137.26 75.9115 138.081 75.7031 139.086 75.7031C140.133 75.7031 141.044 75.9297 141.82 76.3828C142.596 76.8307 143.195 77.4714 143.617 78.3047C144.039 79.1328 144.25 80.1172 144.25 81.2578C144.25 82.4661 144.008 83.5182 143.523 84.4141C143.039 85.3099 142.346 86.0026 141.445 86.4922C140.544 86.9818 139.466 87.2266 138.211 87.2266C136.956 87.2266 135.875 86.9714 134.969 86.4609C134.068 85.9505 133.372 85.2005 132.883 84.2109C132.398 83.2161 132.156 81.9948 132.156 80.5469V79.6719C132.156 76.7031 132.755 74.5182 133.953 73.1172C135.151 71.7161 136.901 71.0104 139.203 71C139.781 70.9948 140.305 70.9948 140.773 71C141.247 71 141.661 70.9766 142.016 70.9297C142.37 70.8776 142.667 70.776 142.906 70.625ZM138.234 84.3437C138.672 84.3437 139.049 84.2266 139.367 83.9922C139.685 83.7578 139.93 83.4219 140.102 82.9844C140.273 82.5469 140.359 82.0208 140.359 81.4062C140.359 80.7917 140.271 80.2682 140.094 79.8359C139.922 79.4036 139.677 79.0755 139.359 78.8516C139.042 78.6224 138.664 78.5078 138.227 78.5078C137.893 78.5078 137.591 78.5729 137.32 78.7031C137.049 78.8281 136.82 79.0156 136.633 79.2656C136.445 79.5104 136.302 79.8125 136.203 80.1719C136.104 80.5312 136.055 80.9427 136.055 81.4062C136.055 82.3229 136.247 83.0417 136.633 83.5625C137.018 84.0833 137.552 84.3437 138.234 84.3437ZM151.857 87.2266C150.597 87.2266 149.514 86.9688 148.607 86.4531C147.706 85.9323 147.011 85.2083 146.521 84.2812C146.037 83.349 145.795 82.2682 145.795 81.0391C145.795 79.8047 146.037 78.724 146.521 77.7969C147.011 76.8646 147.706 76.1406 148.607 75.625C149.514 75.1042 150.597 74.8438 151.857 74.8438C153.118 74.8438 154.199 75.1042 155.1 75.625C156.006 76.1406 156.701 76.8646 157.186 77.7969C157.675 78.724 157.92 79.8047 157.92 81.0391C157.92 82.2682 157.675 83.349 157.186 84.2812C156.701 85.2083 156.006 85.9323 155.1 86.4531C154.199 86.9688 153.118 87.2266 151.857 87.2266ZM151.881 84.3437C152.339 84.3437 152.727 84.2031 153.045 83.9219C153.363 83.6406 153.605 83.25 153.771 82.75C153.943 82.25 154.029 81.6719 154.029 81.0156C154.029 80.349 153.943 79.7656 153.771 79.2656C153.605 78.7656 153.363 78.375 153.045 78.0937C152.727 77.8125 152.339 77.6719 151.881 77.6719C151.407 77.6719 151.006 77.8125 150.678 78.0937C150.355 78.375 150.107 78.7656 149.936 79.2656C149.769 79.7656 149.686 80.349 149.686 81.0156C149.686 81.6719 149.769 82.25 149.936 82.75C150.107 83.25 150.355 83.6406 150.678 83.9219C151.006 84.2031 151.407 84.3437 151.881 84.3437ZM159.877 91.5V75H163.658V77.0547H163.775C163.932 76.6901 164.153 76.3385 164.439 76C164.731 75.6615 165.101 75.3854 165.549 75.1719C166.002 74.9531 166.544 74.8438 167.174 74.8438C168.007 74.8438 168.786 75.0625 169.51 75.5C170.239 75.9375 170.827 76.612 171.275 77.5234C171.723 78.4349 171.947 79.5964 171.947 81.0078C171.947 82.3672 171.731 83.5052 171.299 84.4219C170.872 85.3385 170.294 86.026 169.564 86.4844C168.84 86.9427 168.036 87.1719 167.15 87.1719C166.546 87.1719 166.023 87.0729 165.58 86.875C165.137 86.6771 164.765 86.4167 164.463 86.0937C164.166 85.7708 163.937 85.4245 163.775 85.0547H163.697V91.5H159.877ZM163.619 81C163.619 81.6458 163.705 82.2083 163.877 82.6875C164.054 83.1667 164.307 83.5391 164.635 83.8047C164.968 84.0651 165.367 84.1953 165.83 84.1953C166.299 84.1953 166.697 84.0651 167.025 83.8047C167.354 83.5391 167.601 83.1667 167.768 82.6875C167.939 82.2083 168.025 81.6458 168.025 81C168.025 80.3542 167.939 79.7943 167.768 79.3203C167.601 78.8464 167.354 78.4792 167.025 78.2187C166.702 77.9583 166.304 77.8281 165.83 77.8281C165.361 77.8281 164.963 77.9557 164.635 78.2109C164.307 78.4661 164.054 78.8307 163.877 79.3047C163.705 79.7786 163.619 80.3437 163.619 81ZM175.898 91.5C175.44 91.5 175.008 91.4635 174.602 91.3906C174.195 91.3229 173.846 91.2318 173.555 91.1172L174.398 88.3438C174.773 88.4688 175.112 88.5417 175.414 88.5625C175.721 88.5833 175.984 88.5339 176.203 88.4141C176.427 88.2995 176.599 88.0938 176.719 87.7969L176.867 87.4375L172.602 75H176.602L178.813 83.5625H178.938L181.18 75H185.203L180.68 88.1484C180.461 88.8047 180.151 89.3828 179.75 89.8828C179.354 90.388 178.841 90.7839 178.211 91.0703C177.586 91.3568 176.815 91.5 175.898 91.5ZM184.873 90.5391V84.0547H185.771C186.042 83.9193 186.258 83.6589 186.42 83.2734C186.581 82.8828 186.709 82.4271 186.803 81.9062C186.902 81.3802 186.975 80.8333 187.021 80.2656C187.074 79.6927 187.12 79.1536 187.162 78.6484L187.443 75H197.162V84.0547H199.037V90.5391H195.412V87H188.592V90.5391H184.873ZM189.49 84.0547H193.6V77.8437H190.631L190.568 78.6484C190.495 79.9401 190.381 81.0234 190.225 81.8984C190.068 82.7734 189.824 83.4922 189.49 84.0547ZM206.406 87.2266C205.146 87.2266 204.063 86.9688 203.156 86.4531C202.255 85.9323 201.56 85.2083 201.07 84.2812C200.586 83.349 200.344 82.2682 200.344 81.0391C200.344 79.8047 200.586 78.724 201.07 77.7969C201.56 76.8646 202.255 76.1406 203.156 75.625C204.063 75.1042 205.146 74.8438 206.406 74.8438C207.667 74.8438 208.747 75.1042 209.648 75.625C210.555 76.1406 211.25 76.8646 211.734 77.7969C212.224 78.724 212.469 79.8047 212.469 81.0391C212.469 82.2682 212.224 83.349 211.734 84.2812C211.25 85.2083 210.555 85.9323 209.648 86.4531C208.747 86.9688 207.667 87.2266 206.406 87.2266ZM206.43 84.3437C206.888 84.3437 207.276 84.2031 207.594 83.9219C207.911 83.6406 208.154 83.25 208.32 82.75C208.492 82.25 208.578 81.6719 208.578 81.0156C208.578 80.349 208.492 79.7656 208.32 79.2656C208.154 78.7656 207.911 78.375 207.594 78.0937C207.276 77.8125 206.888 77.6719 206.43 77.6719C205.956 77.6719 205.555 77.8125 205.227 78.0937C204.904 78.375 204.656 78.7656 204.484 79.2656C204.318 79.7656 204.234 80.349 204.234 81.0156C204.234 81.6719 204.318 82.25 204.484 82.75C204.656 83.25 204.904 83.6406 205.227 83.9219C205.555 84.2031 205.956 84.3437 206.43 84.3437ZM214.426 87V75H219.605C221.152 75 222.371 75.2786 223.262 75.8359C224.158 76.388 224.605 77.1979 224.605 78.2656C224.605 78.8854 224.353 79.4193 223.848 79.8672C223.348 80.3099 222.637 80.6094 221.715 80.7656C222.527 80.8073 223.202 80.9687 223.738 81.25C224.275 81.5312 224.676 81.888 224.941 82.3203C225.207 82.7526 225.34 83.2135 225.34 83.7031C225.34 84.4115 225.15 85.0104 224.77 85.5C224.389 85.9896 223.832 86.362 223.098 86.6172C222.368 86.8724 221.473 87 220.41 87H214.426ZM217.98 84.2344H220.41C220.816 84.2344 221.134 84.138 221.363 83.9453C221.598 83.7526 221.715 83.487 221.715 83.1484C221.715 82.7839 221.598 82.4974 221.363 82.2891C221.134 82.0807 220.816 81.9766 220.41 81.9766H217.98V84.2344ZM217.98 79.9062H219.707C219.983 79.9062 220.22 79.8646 220.418 79.7812C220.616 79.6979 220.767 79.5781 220.871 79.4219C220.98 79.2656 221.035 79.0781 221.035 78.8594C221.035 78.5417 220.908 78.2917 220.652 78.1094C220.402 77.9271 220.053 77.8359 219.605 77.8359H217.98V79.9062ZM230.613 87.2031C229.848 87.2031 229.168 87.0755 228.574 86.8203C227.986 86.5599 227.52 86.1693 227.176 85.6484C226.837 85.1224 226.668 84.4635 226.668 83.6719C226.668 83.0052 226.785 82.4427 227.02 81.9844C227.254 81.526 227.577 81.1536 227.988 80.8672C228.4 80.5807 228.874 80.3646 229.41 80.2187C229.947 80.0677 230.52 79.9661 231.129 79.9141C231.811 79.8516 232.361 79.7865 232.777 79.7188C233.194 79.6458 233.496 79.5443 233.684 79.4141C233.876 79.2786 233.973 79.0885 233.973 78.8437V78.8047C233.973 78.4036 233.835 78.0937 233.559 77.875C233.283 77.6562 232.91 77.5469 232.441 77.5469C231.936 77.5469 231.53 77.6562 231.223 77.875C230.915 78.0937 230.72 78.3958 230.637 78.7812L227.113 78.6562C227.217 77.9271 227.486 77.276 227.918 76.7031C228.355 76.125 228.954 75.6719 229.715 75.3437C230.48 75.0104 231.4 74.8438 232.473 74.8438C233.238 74.8438 233.944 74.9349 234.59 75.1172C235.236 75.2943 235.798 75.5547 236.277 75.8984C236.757 76.237 237.126 76.6536 237.387 77.1484C237.652 77.6432 237.785 78.2083 237.785 78.8437V87H234.191V85.3281H234.098C233.884 85.7344 233.611 86.0781 233.277 86.3594C232.949 86.6406 232.561 86.8516 232.113 86.9922C231.671 87.1328 231.171 87.2031 230.613 87.2031ZM231.793 84.7031C232.204 84.7031 232.574 84.6198 232.902 84.4531C233.236 84.2865 233.501 84.0573 233.699 83.7656C233.897 83.4687 233.996 83.125 233.996 82.7344V81.5937C233.887 81.651 233.754 81.7031 233.598 81.75C233.447 81.7969 233.28 81.8411 233.098 81.8828C232.915 81.9245 232.728 81.9609 232.535 81.9922C232.342 82.0234 232.158 82.0521 231.98 82.0781C231.621 82.1354 231.314 82.224 231.059 82.3437C230.809 82.4635 230.616 82.6198 230.48 82.8125C230.35 83 230.285 83.224 230.285 83.4844C230.285 83.8802 230.426 84.1823 230.707 84.3906C230.993 84.599 231.355 84.7031 231.793 84.7031ZM248.582 79.5078V82.4219H242.426V79.5078H248.582ZM243.738 75V87H240.121V75H243.738ZM250.887 75V87H247.293V75H250.887ZM256.822 82.0547L260.658 75H264.33V87H260.713V79.9219L256.885 87H253.205V75H256.822V82.0547ZM273.73 87V77.9141H271.793C271.215 77.9141 270.783 78.0469 270.496 78.3125C270.21 78.5781 270.072 78.8698 270.082 79.1875C270.072 79.5156 270.212 79.8047 270.504 80.0547C270.796 80.3047 271.236 80.4297 271.824 80.4297H275.051V82.8516H271.824C270.725 82.8516 269.772 82.6927 268.965 82.375C268.163 82.0521 267.543 81.6068 267.105 81.0391C266.673 80.4661 266.46 79.8073 266.465 79.0625C266.46 78.2656 266.673 77.5625 267.105 76.9531C267.538 76.3385 268.152 75.8594 268.949 75.5156C269.751 75.1719 270.699 75 271.793 75H277.285V87H273.73ZM266.23 87L269.535 80.6562H273.113L269.809 87H266.23Z" fill="#0a84c0"/>
<path d="M114.688 47.1406V44H128.211V47.1406H123.359V60H119.547V47.1406H114.688ZM133.961 60.2266C132.701 60.2266 131.617 59.9688 130.711 59.4531C129.81 58.9323 129.115 58.2083 128.625 57.2812C128.141 56.349 127.898 55.2682 127.898 54.0391C127.898 52.8047 128.141 51.724 128.625 50.7969C129.115 49.8646 129.81 49.1406 130.711 48.625C131.617 48.1042 132.701 47.8438 133.961 47.8438C135.221 47.8438 136.302 48.1042 137.203 48.625C138.109 49.1406 138.805 49.8646 139.289 50.7969C139.779 51.724 140.023 52.8047 140.023 54.0391C140.023 55.2682 139.779 56.349 139.289 57.2812C138.805 58.2083 138.109 58.9323 137.203 59.4531C136.302 59.9688 135.221 60.2266 133.961 60.2266ZM133.984 57.3437C134.443 57.3437 134.831 57.2031 135.148 56.9219C135.466 56.6406 135.708 56.25 135.875 56.25C136.047 55.75 136.133 55.1719 136.133 54.5156C136.133 53.849 136.047 53.2656 135.875 52.7656C135.708 52.2656 135.466 51.875 135.148 51.5937C134.831 51.3125 134.443 51.1719 133.984 51.1719C133.51 51.1719 133.109 51.3125 132.781 51.5937C132.458 51.875 132.211 52.2656 132.039 52.7656C131.872 53.2656 131.789 53.849 131.789 54.5156C131.789 55.1719 131.872 55.75 132.039 56.25C132.211 56.75 132.458 57.1406 132.781 57.4219C133.109 57.7031 133.51 57.8437 133.984 57.8437ZM141.98 64.5V48H145.762V50.0547H145.879C146.035 49.6901 146.257 49.3385 146.543 49C146.835 48.6615 147.204 48.3854 147.652 48.1719C148.105 47.9531 148.647 47.8438 149.277 47.8438C150.111 47.8438 150.889 48.0625 151.613 48.5C152.342 48.9375 152.931 49.612 153.379 50.5234C153.827 51.4349 154.051 52.5964 154.051 54.0078C154.051 55.3672 153.835 56.5052 153.402 57.4219C152.975 58.3385 152.397 59.026 151.668 59.4844C150.944 59.9427 150.139 60.1719 149.254 60.1719C148.65 60.1719 148.126 60.0729 147.684 59.875C147.241 59.6771 146.868 59.4167 146.566 59.0937C146.27 58.7708 146.04 58.4245 145.879 58.0547H145.801V64.5H141.98ZM145.723 54C145.723 54.6458 145.809 55.2083 145.98 55.6875C146.158 56.1667 146.41 56.5391 146.738 56.8047C147.072 57.0651 147.47 57.1953 147.934 57.1953C148.402 57.1953 148.801 57.0651 149.129 56.8047C149.457 56.5391 149.704 56.1667 149.871 55.6875C150.043 55.2083 150.129 54.6458 150.129 54C150.129 53.3542 150.043 52.7943 149.871 52.3203C149.704 51.8464 149.457 51.4792 149.129 51.2187C148.806 50.9583 148.408 50.8281 147.934 50.8281C147.465 50.8281 147.066 50.9557 146.738 51.2109C146.41 51.4661 146.158 51.8307 145.98 52.3047C145.809 52.7786 145.723 53.3437 145.723 54ZM164.537 48V50.9219H159.748V60H156.053V48H164.537ZM171.58 60.2266C170.32 60.2266 169.236 59.9688 168.33 59.4531C167.429 58.9323 166.734 58.2083 166.244 57.2812C165.76 56.349 165.518 55.2682 165.518 54.0391C165.518 52.8047 165.76 51.724 166.244 50.7969C166.734 49.8646 167.429 49.1406 168.33 48.625C169.236 48.1042 170.32 47.8438 171.58 47.8438C172.84 47.8438 173.921 48.1042 174.822 48.625C175.729 49.1406 176.424 49.8646 176.908 50.7969C177.398 51.724 177.643 52.8047 177.643 54.0391C177.643 55.2682 177.398 56.349 176.908 57.2812C176.424 58.2083 175.729 58.9323 174.822 59.4531C173.921 59.9688 172.84 60.2266 171.58 60.2266ZM171.604 57.3437C172.062 57.3437 172.45 57.2031 172.768 56.9219C173.085 56.6406 173.327 56.25 173.494 55.75C173.666 55.25 173.752 54.6719 173.752 54.0156C173.752 53.349 173.666 52.7656 173.494 52.2656C173.327 51.7656 173.085 51.375 172.768 51.0937C172.45 50.8125 172.062 50.6719 171.604 50.6719C171.13 50.6719 170.729 50.8125 170.4 51.0937C170.077 51.375 169.83 51.7656 169.658 52.2656C169.492 52.7656 169.408 53.349 169.408 54.0156C169.408 54.6719 169.492 55.25 169.658 55.75C169.83 56.25 170.077 56.6406 170.4 56.9219C170.729 57.2031 171.13 57.3437 171.604 57.3437ZM179.6 60V48H184.779C186.326 48 187.545 48.2786 188.436 48.8359C189.331 49.388 189.779 50.1979 189.779 51.2656C189.779 51.8854 189.527 52.4193 189.021 52.8672C188.521 53.3099 187.811 53.6094 186.889 53.7656C187.701 53.8073 188.376 53.9687 188.912 54.25C189.449 54.5312 189.85 54.888 190.115 55.3203C190.381 55.7526 190.514 56.2135 190.514 56.7031C190.514 57.4115 190.324 58.0104 189.943 58.5C189.563 58.9896 189.006 59.362 188.271 59.6172C187.542 59.8724 186.646 60 185.584 60H179.6ZM183.154 57.2344H185.584C185.99 57.2344 186.308 57.138 186.537 56.9453C186.771 56.7526 186.889 56.487 186.889 56.1484C186.889 55.7839 186.771 55.4974 186.537 55.2891C186.308 55.0807 185.99 54.9766 185.584 54.9766H183.154V57.2344ZM183.154 52.9062H184.881C185.157 52.9062 185.394 52.8646 185.592 52.7812C185.79 52.6979 185.941 52.5781 186.045 52.4219C186.154 52.2656 186.209 52.0781 186.209 51.8594C186.209 51.5417 186.081 51.2917 185.826 51.1094C185.576 50.9271 185.227 50.8359 184.779 50.8359H183.154V52.9062ZM198.006 60.2266C196.745 60.2266 195.662 59.9688 194.756 59.4531C193.855 58.9323 193.16 58.2083 192.67 57.2812C192.186 56.349 191.943 55.2682 191.943 54.0391C191.943 52.8047 192.186 51.724 192.67 50.7969C193.16 49.8646 193.855 49.1406 194.756 48.625C195.662 48.1042 196.745 47.8438 198.006 47.8438C199.266 47.8438 200.347 48.1042 201.248 48.625C202.154 49.1406 202.85 49.8646 203.334 50.7969C203.824 51.724 204.068 52.8047 204.068 54.0391C204.068 55.2682 203.824 56.349 203.334 57.2812C202.85 58.2083 202.154 58.9323 201.248 59.4531C200.347 59.9688 199.266 60.2266 198.006 60.2266ZM198.029 57.3437C198.488 57.3437 198.876 57.2031 199.193 56.9219C199.511 56.6406 199.753 56.25 199.92 55.75C200.092 55.25 200.178 54.6719 200.178 54.0156C200.178 53.349 200.092 52.7656 199.92 52.2656C199.753 51.7656 199.511 51.375 199.193 51.0937C198.876 50.8125 198.488 50.6719 198.029 50.6719C197.555 50.6719 197.154 50.8125 196.826 51.0937C196.503 51.375 196.256 51.7656 196.084 52.2656C195.917 52.7656 195.834 53.349 195.834 54.0156C195.834 54.6719 195.917 55.25 196.084 55.75C196.256 56.25 196.503 56.6406 196.826 56.9219C197.154 57.2031 197.555 57.3437 198.029 57.3437ZM214.51 48V50.9219H209.721V60H206.025V48H214.51ZM221.553 60.2266C220.292 60.2266 219.209 59.9688 218.303 59.4531C217.402 58.9323 216.706 58.2083 216.217 57.2812C215.732 56.349 215.49 55.2682 215.49 54.0391C215.49 52.8047 215.732 51.724 216.217 50.7969C216.706 49.8646 217.402 49.1406 218.303 48.625C219.209 48.1042 220.292 47.8438 221.553 47.8438C222.813 47.8438 223.894 48.1042 224.795 48.625C225.701 49.1406 226.396 49.8646 226.881 50.7969C227.37 51.724 227.615 52.8047 227.615 54.0391C227.615 55.2682 227.37 56.349 226.881 57.2812C226.396 58.2083 225.701 58.9323 224.795 59.4531C223.894 59.9688 222.813 60.2266 221.553 60.2266ZM221.576 57.3437C222.035 57.3437 222.423 57.2031 222.74 56.9219C223.058 56.6406 223.3 56.25 223.467 55.75C223.639 55.25 223.725 54.6719 223.725 54.0156C223.725 53.349 223.639 52.7656 223.467 52.2656C223.3 51.7656 223.058 51.375 222.74 51.0937C222.423 50.8125 222.035 50.6719 221.576 50.6719C221.102 50.6719 220.701 50.8125 220.373 51.0937C220.05 51.375 219.803 51.7656 219.631 52.2656C219.464 52.7656 219.381 53.349 219.381 54.0156C219.381 54.6719 219.464 55.25 219.631 55.75C219.803 56.25 220.05 56.6406 220.373 56.9219C220.701 57.2031 221.102 57.3437 221.576 57.3437Z" fill="#0a84c0"/>
<path d="M134.026 18.0142H129.054C128.988 17.5038 128.852 17.0431 128.646 16.6321C128.441 16.2211 128.169 15.8698 127.831 15.5781C127.493 15.2865 127.092 15.0644 126.628 14.9119C126.17 14.7528 125.663 14.6733 125.107 14.6733C124.119 14.6733 123.267 14.9152 122.551 15.3991C121.842 15.883 121.295 16.5824 120.911 17.4972C120.533 18.4119 120.344 19.5189 120.344 20.8182C120.344 22.1705 120.536 23.304 120.92 24.2188C121.312 25.1269 121.858 25.813 122.561 26.277C123.27 26.7344 124.109 26.9631 125.077 26.9631C125.62 26.9631 126.114 26.8935 126.558 26.7543C127.009 26.6151 127.403 26.4129 127.741 26.1477C128.086 25.8759 128.368 25.5478 128.587 25.1634C128.812 24.7723 128.968 24.3314 129.054 23.8409L134.026 23.8707C133.939 24.7723 133.678 25.6605 133.24 26.5355C132.809 27.4105 132.216 28.2093 131.46 28.9318C130.705 29.6477 129.783 30.2178 128.696 30.642C127.616 31.0663 126.376 31.2784 124.977 31.2784C123.134 31.2784 121.484 30.8741 120.026 30.0653C118.574 29.25 117.427 28.0634 116.585 26.5057C115.743 24.9479 115.322 23.0521 115.322 20.8182C115.322 18.5777 115.75 16.6785 116.605 15.1207C117.46 13.563 118.617 12.3797 120.075 11.571C121.534 10.7623 123.168 10.358 124.977 10.358C126.21 10.358 127.35 10.5303 128.398 10.875C129.445 11.2131 130.366 11.7102 131.162 12.3665C131.957 13.0161 132.604 13.8149 133.101 14.7628C133.598 15.7107 133.906 16.7945 134.026 18.0142ZM144.508 36.1804V10.6364H149.37V36.1804H144.508ZM144.508 31.2884C143.295 31.2884 142.185 31.0961 141.177 30.7116C140.17 30.3272 139.298 29.7869 138.562 29.0909C137.833 28.3883 137.266 27.5563 136.862 26.5952C136.458 25.634 136.255 24.5734 136.255 23.4134C136.255 22.2533 136.458 21.1927 136.862 20.2315C137.266 19.2637 137.833 18.4285 138.562 17.7259C139.298 17.0232 140.17 16.483 141.177 16.1051C142.185 15.7206 143.295 15.5284 144.508 15.5284H145.324V31.2884H144.508ZM144.508 27.5895H145.005V19.2273H144.508C144.018 19.2273 143.57 19.3333 143.166 19.5455C142.768 19.7576 142.427 20.0526 142.142 20.4304C141.863 20.8016 141.648 21.2424 141.495 21.7528C141.35 22.2566 141.277 22.8101 141.277 23.4134C141.277 24.2022 141.409 24.9148 141.674 25.5511C141.94 26.1809 142.314 26.678 142.798 27.0426C143.288 27.4072 143.859 27.5895 144.508 27.5895ZM149.37 31.2884H148.565V15.5284H149.37C150.583 15.5284 151.694 15.7206 152.701 16.1051C153.709 16.483 154.581 17.0232 155.316 17.7259C156.052 18.4285 156.622 19.2637 157.027 20.2315C157.431 21.1927 157.633 22.2533 157.633 23.4134C157.633 24.5734 157.431 25.634 157.027 26.5952C156.622 27.5563 156.052 28.3883 155.316 29.0909C154.581 29.7869 153.709 30.3272 152.701 30.7116C151.694 31.0961 150.583 31.2884 149.37 31.2884ZM149.37 27.5895C149.868 27.5895 150.315 27.4834 150.713 27.2713C151.11 27.0592 151.449 26.7675 151.727 26.3963C152.012 26.0185 152.231 25.5777 152.383 25.0739C152.536 24.5634 152.612 24.0099 152.612 23.4134C152.612 22.6113 152.479 21.8954 152.214 21.2656C151.949 20.6359 151.574 20.1387 151.091 19.7741C150.613 19.4096 150.04 19.2273 149.37 19.2273H148.883V27.5895H149.37ZM167.278 31.2884C165.681 31.2884 164.302 30.9735 163.142 30.3438C161.988 29.7074 161.1 28.8026 160.477 27.6293C159.86 26.4493 159.552 25.0473 159.552 23.4233C159.552 21.8456 159.864 20.4669 160.487 19.2869C161.11 18.1004 161.988 17.179 163.122 16.5227C164.255 15.8598 165.591 15.5284 167.129 15.5284C168.216 15.5284 169.21 15.6974 170.112 16.0355C171.013 16.3736 171.792 16.8741 172.449 17.5369C173.105 18.1998 173.615 19.0185 173.98 19.9929C174.344 20.9607 174.527 22.071 174.527 23.3239V24.5369H161.252V21.7131H170.002C169.996 21.196 169.873 20.7353 169.635 20.331C169.396 19.9266 169.068 19.6117 168.65 19.3864C168.239 19.1544 167.765 19.0384 167.228 19.0384C166.685 19.0384 166.198 19.161 165.767 19.4062C165.336 19.6449 164.994 19.973 164.743 20.3906C164.491 20.8016 164.358 21.2689 164.345 21.7926V24.6662C164.345 25.2893 164.467 25.8362 164.713 26.3068C164.958 26.7708 165.306 27.1321 165.757 27.3906C166.208 27.6491 166.744 27.7784 167.368 27.7784C167.798 27.7784 168.19 27.7187 168.541 27.5994C168.892 27.4801 169.194 27.3045 169.446 27.0724C169.698 26.8404 169.886 26.5554 170.012 26.2173L174.477 26.3466C174.291 27.3475 173.884 28.2192 173.254 28.9616C172.631 29.6974 171.812 30.2708 170.798 30.6818C169.784 31.0862 168.61 31.2884 167.278 31.2884ZM177.01 36.7273V15.7273H181.822V18.3423H181.972C182.17 17.8783 182.452 17.4309 182.817 17C183.188 16.5691 183.659 16.2178 184.229 15.946C184.805 15.6676 185.495 15.5284 186.297 15.5284C187.357 15.5284 188.348 15.8068 189.27 16.3636C190.198 16.9205 190.947 17.7789 191.517 18.9389C192.087 20.099 192.372 21.5772 192.372 23.3736C192.372 25.1037 192.097 26.5521 191.547 27.7188C191.003 28.8854 190.268 29.7604 189.339 30.3438C188.418 30.9271 187.394 31.2188 186.267 31.2188C185.498 31.2188 184.832 31.0928 184.268 30.8409C183.705 30.589 183.231 30.2576 182.847 29.8466C182.469 29.4356 182.177 28.9948 181.972 28.5241H181.872V36.7273H177.01ZM181.773 23.3636C181.773 24.1856 181.882 24.9015 182.101 25.5114C182.326 26.1212 182.648 26.5952 183.065 26.9332C183.49 27.2647 183.997 27.4304 184.587 27.4304C185.183 27.4304 185.69 27.2647 186.108 26.9332C186.526 26.5952 186.84 26.1212 187.053 25.5114C187.271 24.9015 187.381 24.1856 187.381 23.3636C187.381 22.5417 187.271 21.8291 187.053 21.2259C186.84 20.6226 186.526 20.1553 186.108 19.8239C185.697 19.4924 185.19 19.3267 184.587 19.3267C183.99 19.3267 183.483 19.4891 183.065 19.8139C182.648 20.1387 182.326 20.6027 182.101 21.206C181.882 21.8092 181.773 22.5284 181.773 23.3636ZM199.225 31.2585C198.251 31.2585 197.386 31.0961 196.63 30.7713C195.881 30.4399 195.288 29.9427 194.85 29.2798C194.42 28.6103 194.204 27.7718 194.204 26.7642C194.204 25.9157 194.353 25.1998 194.652 24.6165C194.95 24.0331 195.361 23.5592 195.885 23.1946C196.408 22.83 197.011 22.5549 197.694 22.3693C198.377 22.1771 199.106 22.0478 199.882 21.9815C200.75 21.902 201.449 21.8191 201.98 21.733C202.51 21.6402 202.895 21.5109 203.133 21.3452C203.378 21.1728 203.501 20.9309 203.501 20.6193V20.5696C203.501 20.0592 203.325 19.6648 202.974 19.3864C202.623 19.108 202.149 18.9688 201.552 18.9688C200.909 18.9688 200.392 19.108 200.001 19.3864C199.61 19.6648 199.361 20.0492 199.255 20.5398L194.771 20.3807C194.904 19.4527 195.245 18.6241 195.795 17.8949C196.352 17.1591 197.114 16.5824 198.082 16.1648C199.056 15.7405 200.226 15.5284 201.592 15.5284C202.566 15.5284 203.465 15.6444 204.287 15.8764C205.109 16.1018 205.824 16.4332 206.434 16.8707C207.044 17.3016 207.515 17.8319 207.846 18.4616C208.184 19.0914 208.353 19.8106 208.353 20.6193V31H203.779V28.8722H203.66C203.388 29.3892 203.04 29.8267 202.616 30.1847C202.199 30.5426 201.705 30.8111 201.135 30.9901C200.571 31.169 199.935 31.2585 199.225 31.2585ZM200.727 28.0767C201.251 28.0767 201.721 27.9706 202.139 27.7585C202.563 27.5464 202.901 27.2547 203.153 26.8835C203.405 26.5057 203.531 26.0682 203.531 25.571V24.1193C203.392 24.1922 203.223 24.2585 203.024 24.3182C202.832 24.3778 202.619 24.4342 202.387 24.4872C202.155 24.5402 201.917 24.5866 201.672 24.6264C201.426 24.6662 201.191 24.7027 200.966 24.7358C200.508 24.8087 200.117 24.9214 199.792 25.0739C199.474 25.2263 199.229 25.4252 199.056 25.6705C198.891 25.9091 198.808 26.1941 198.808 26.5256C198.808 27.0294 198.987 27.4138 199.345 27.679C199.709 27.9441 200.17 28.0767 200.727 28.0767Z" fill="#0a84c0"/>
</svg>
